<?xml version="1.0" encoding="UTF-8"?>
<svg width="1200" height="800" viewBox="0 0 1200 800" xmlns="http://www.w3.org/2000/svg">
    <!-- Sky -->
    <rect x="0" y="0" width="1200" height="800" fill="#87CEEB"/>
    
    <!-- Ground -->
    <rect x="0" y="600" width="1200" height="200" fill="#D2B48C"/>
    
    <!-- Mountains -->
    <path d="M0,600 L300,300 L600,600 L900,200 L1200,600 Z" fill="#8B4513" opacity="0.5"/>
    
    <!-- Argan Trees -->
    <g transform="translate(200,400)">
        <!-- Tree 1 -->
        <rect x="-10" y="0" width="20" height="100" fill="#5D4037"/>
        <circle cx="0" cy="-50" r="80" fill="#2E7D32"/>
    </g>
    
    <g transform="translate(500,450)">
        <!-- Tree 2 -->
        <rect x="-15" y="0" width="30" height="120" fill="#5D4037"/>
        <circle cx="0" cy="-70" r="100" fill="#2E7D32"/>
    </g>
    
    <g transform="translate(800,420)">
        <!-- Tree 3 -->
        <rect x="-12" y="0" width="24" height="110" fill="#5D4037"/>
        <circle cx="0" cy="-60" r="90" fill="#2E7D32"/>
    </g>
    
    <!-- Sun -->
    <circle cx="1000" cy="100" r="60" fill="#FFD700"/>
    
    <!-- Argan Fruits -->
    <g transform="translate(200,350)">
        <circle cx="30" cy="0" r="5" fill="#8B4513"/>
        <circle cx="-20" cy="10" r="5" fill="#8B4513"/>
        <circle cx="0" cy="-15" r="5" fill="#8B4513"/>
    </g>
    
    <g transform="translate(500,380)">
        <circle cx="40" cy="0" r="6" fill="#8B4513"/>
        <circle cx="-30" cy="15" r="6" fill="#8B4513"/>
        <circle cx="10" cy="-20" r="6" fill="#8B4513"/>
    </g>
    
    <g transform="translate(800,360)">
        <circle cx="35" cy="5" r="5" fill="#8B4513"/>
        <circle cx="-25" cy="12" r="5" fill="#8B4513"/>
        <circle cx="5" cy="-18" r="5" fill="#8B4513"/>
    </g>
</svg>
